<mxfile host="app.diagrams.net" agent="Mozilla/5.0 (Windows NT 10.0; Win64; x64) AppleWebKit/537.36 (KHTML, like Gecko) Chrome/129.0.0.0 Safari/537.36" version="24.8.0">
  <diagram name="Page-1" id="Kuie99GEHjZFzCjrgfbg">
    <mxGraphModel dx="2345" dy="1096" grid="1" gridSize="10" guides="1" tooltips="1" connect="1" arrows="1" fold="1" page="1" pageScale="1" pageWidth="850" pageHeight="1100" math="0" shadow="0">
      <root>
        <mxCell id="0" />
        <mxCell id="1" parent="0" />
        <mxCell id="P-s0e4_N4zQ5y5fX0aCr-124" style="edgeStyle=orthogonalEdgeStyle;rounded=0;orthogonalLoop=1;jettySize=auto;html=1;exitX=0.5;exitY=1;exitDx=0;exitDy=0;" edge="1" parent="1" source="P-s0e4_N4zQ5y5fX0aCr-119" target="P-s0e4_N4zQ5y5fX0aCr-122">
          <mxGeometry relative="1" as="geometry" />
        </mxCell>
        <mxCell id="P-s0e4_N4zQ5y5fX0aCr-119" value="Start" style="rounded=1;whiteSpace=wrap;arcSize=50;strokeWidth=2;" vertex="1" parent="1">
          <mxGeometry x="970" y="670" width="58" height="33" as="geometry" />
        </mxCell>
        <mxCell id="P-s0e4_N4zQ5y5fX0aCr-126" style="edgeStyle=orthogonalEdgeStyle;rounded=0;orthogonalLoop=1;jettySize=auto;html=1;exitX=1;exitY=0.5;exitDx=0;exitDy=0;" edge="1" parent="1" source="P-s0e4_N4zQ5y5fX0aCr-122" target="P-s0e4_N4zQ5y5fX0aCr-125">
          <mxGeometry relative="1" as="geometry" />
        </mxCell>
        <mxCell id="P-s0e4_N4zQ5y5fX0aCr-130" style="edgeStyle=orthogonalEdgeStyle;rounded=0;orthogonalLoop=1;jettySize=auto;html=1;exitX=0.5;exitY=1;exitDx=0;exitDy=0;" edge="1" parent="1" source="P-s0e4_N4zQ5y5fX0aCr-122" target="P-s0e4_N4zQ5y5fX0aCr-129">
          <mxGeometry relative="1" as="geometry">
            <Array as="points">
              <mxPoint x="999" y="820" />
              <mxPoint x="1170" y="820" />
              <mxPoint x="1170" y="867" />
            </Array>
          </mxGeometry>
        </mxCell>
        <mxCell id="P-s0e4_N4zQ5y5fX0aCr-122" value="" style="rounded=0;whiteSpace=wrap;html=1;" vertex="1" parent="1">
          <mxGeometry x="939" y="740" width="120" height="50" as="geometry" />
        </mxCell>
        <mxCell id="P-s0e4_N4zQ5y5fX0aCr-123" value="Menu Utama" style="text;html=1;align=center;verticalAlign=middle;whiteSpace=wrap;rounded=0;" vertex="1" parent="1">
          <mxGeometry x="959" y="750" width="80" height="30" as="geometry" />
        </mxCell>
        <mxCell id="P-s0e4_N4zQ5y5fX0aCr-125" value="Daftar Pengguna" style="shape=parallelogram;perimeter=parallelogramPerimeter;fixedSize=1;strokeWidth=2;whiteSpace=wrap;" vertex="1" parent="1">
          <mxGeometry x="1130" y="749" width="155" height="33" as="geometry" />
        </mxCell>
        <mxCell id="P-s0e4_N4zQ5y5fX0aCr-128" value="" style="endArrow=classic;html=1;rounded=0;exitX=1;exitY=0.5;exitDx=0;exitDy=0;entryX=0.84;entryY=-0.03;entryDx=0;entryDy=0;entryPerimeter=0;" edge="1" parent="1" source="P-s0e4_N4zQ5y5fX0aCr-125" target="P-s0e4_N4zQ5y5fX0aCr-122">
          <mxGeometry width="50" height="50" relative="1" as="geometry">
            <mxPoint x="1180" y="590" as="sourcePoint" />
            <mxPoint x="1230" y="540" as="targetPoint" />
            <Array as="points">
              <mxPoint x="1310" y="766" />
              <mxPoint x="1310" y="710" />
              <mxPoint x="1040" y="710" />
            </Array>
          </mxGeometry>
        </mxCell>
        <mxCell id="P-s0e4_N4zQ5y5fX0aCr-129" value="Login Pengguna" style="shape=parallelogram;perimeter=parallelogramPerimeter;fixedSize=1;strokeWidth=2;whiteSpace=wrap;" vertex="1" parent="1">
          <mxGeometry x="1010" y="850" width="148" height="33" as="geometry" />
        </mxCell>
        <mxCell id="P-s0e4_N4zQ5y5fX0aCr-136" style="edgeStyle=orthogonalEdgeStyle;rounded=0;orthogonalLoop=1;jettySize=auto;html=1;exitX=0;exitY=0.5;exitDx=0;exitDy=0;entryX=1;entryY=0.483;entryDx=0;entryDy=0;entryPerimeter=0;" edge="1" parent="1" source="P-s0e4_N4zQ5y5fX0aCr-131" target="P-s0e4_N4zQ5y5fX0aCr-141">
          <mxGeometry relative="1" as="geometry">
            <mxPoint x="855" y="969" as="targetPoint" />
          </mxGeometry>
        </mxCell>
        <mxCell id="P-s0e4_N4zQ5y5fX0aCr-137" style="edgeStyle=orthogonalEdgeStyle;rounded=0;orthogonalLoop=1;jettySize=auto;html=1;exitX=1;exitY=0.5;exitDx=0;exitDy=0;entryX=0;entryY=0.5;entryDx=0;entryDy=0;" edge="1" parent="1" source="P-s0e4_N4zQ5y5fX0aCr-131" target="P-s0e4_N4zQ5y5fX0aCr-143">
          <mxGeometry relative="1" as="geometry">
            <mxPoint x="1147" y="970" as="targetPoint" />
          </mxGeometry>
        </mxCell>
        <mxCell id="P-s0e4_N4zQ5y5fX0aCr-131" value="" style="rhombus;whiteSpace=wrap;html=1;" vertex="1" parent="1">
          <mxGeometry x="909" y="905" width="141" height="140" as="geometry" />
        </mxCell>
        <mxCell id="P-s0e4_N4zQ5y5fX0aCr-139" value="admin==admin&lt;div&gt;pengguna==pengguna&lt;/div&gt;" style="text;html=1;align=center;verticalAlign=middle;whiteSpace=wrap;rounded=0;" vertex="1" parent="1">
          <mxGeometry x="964" y="953.5" width="31" height="14" as="geometry" />
        </mxCell>
        <mxCell id="P-s0e4_N4zQ5y5fX0aCr-140" value="" style="endArrow=classic;html=1;rounded=0;exitX=0;exitY=0.5;exitDx=0;exitDy=0;entryX=0;entryY=0.5;entryDx=0;entryDy=0;" edge="1" parent="1" source="P-s0e4_N4zQ5y5fX0aCr-129" target="P-s0e4_N4zQ5y5fX0aCr-122">
          <mxGeometry width="50" height="50" relative="1" as="geometry">
            <mxPoint x="1230" y="690" as="sourcePoint" />
            <mxPoint x="1280" y="640" as="targetPoint" />
            <Array as="points">
              <mxPoint x="890" y="866" />
              <mxPoint x="890" y="765" />
            </Array>
          </mxGeometry>
        </mxCell>
        <mxCell id="P-s0e4_N4zQ5y5fX0aCr-186" style="edgeStyle=orthogonalEdgeStyle;rounded=0;orthogonalLoop=1;jettySize=auto;html=1;exitX=0;exitY=0.5;exitDx=0;exitDy=0;" edge="1" parent="1" source="P-s0e4_N4zQ5y5fX0aCr-141" target="P-s0e4_N4zQ5y5fX0aCr-148">
          <mxGeometry relative="1" as="geometry">
            <Array as="points">
              <mxPoint x="760" y="970" />
              <mxPoint x="760" y="960" />
            </Array>
          </mxGeometry>
        </mxCell>
        <mxCell id="P-s0e4_N4zQ5y5fX0aCr-187" style="edgeStyle=orthogonalEdgeStyle;rounded=0;orthogonalLoop=1;jettySize=auto;html=1;exitX=0;exitY=0.5;exitDx=0;exitDy=0;" edge="1" parent="1" source="P-s0e4_N4zQ5y5fX0aCr-141" target="P-s0e4_N4zQ5y5fX0aCr-149">
          <mxGeometry relative="1" as="geometry" />
        </mxCell>
        <mxCell id="P-s0e4_N4zQ5y5fX0aCr-188" style="edgeStyle=orthogonalEdgeStyle;rounded=0;orthogonalLoop=1;jettySize=auto;html=1;entryX=1;entryY=0.5;entryDx=0;entryDy=0;" edge="1" parent="1" source="P-s0e4_N4zQ5y5fX0aCr-141" target="P-s0e4_N4zQ5y5fX0aCr-150">
          <mxGeometry relative="1" as="geometry">
            <Array as="points">
              <mxPoint x="760" y="970" />
              <mxPoint x="760" y="1056" />
            </Array>
          </mxGeometry>
        </mxCell>
        <mxCell id="P-s0e4_N4zQ5y5fX0aCr-189" style="edgeStyle=orthogonalEdgeStyle;rounded=0;orthogonalLoop=1;jettySize=auto;html=1;entryX=1;entryY=0.5;entryDx=0;entryDy=0;" edge="1" parent="1" source="P-s0e4_N4zQ5y5fX0aCr-141" target="P-s0e4_N4zQ5y5fX0aCr-147">
          <mxGeometry relative="1" as="geometry">
            <Array as="points">
              <mxPoint x="760" y="970" />
              <mxPoint x="760" y="916" />
            </Array>
          </mxGeometry>
        </mxCell>
        <mxCell id="P-s0e4_N4zQ5y5fX0aCr-190" style="edgeStyle=orthogonalEdgeStyle;rounded=0;orthogonalLoop=1;jettySize=auto;html=1;entryX=1;entryY=0.5;entryDx=0;entryDy=0;" edge="1" parent="1" source="P-s0e4_N4zQ5y5fX0aCr-141" target="P-s0e4_N4zQ5y5fX0aCr-183">
          <mxGeometry relative="1" as="geometry">
            <Array as="points">
              <mxPoint x="760" y="970" />
              <mxPoint x="760" y="1106" />
            </Array>
          </mxGeometry>
        </mxCell>
        <mxCell id="P-s0e4_N4zQ5y5fX0aCr-141" value="" style="rounded=0;whiteSpace=wrap;html=1;" vertex="1" parent="1">
          <mxGeometry x="790" y="950" width="80" height="40" as="geometry" />
        </mxCell>
        <mxCell id="P-s0e4_N4zQ5y5fX0aCr-176" style="edgeStyle=orthogonalEdgeStyle;rounded=0;orthogonalLoop=1;jettySize=auto;html=1;exitX=1;exitY=0.5;exitDx=0;exitDy=0;entryX=0;entryY=0.5;entryDx=0;entryDy=0;" edge="1" parent="1" source="P-s0e4_N4zQ5y5fX0aCr-143" target="P-s0e4_N4zQ5y5fX0aCr-175">
          <mxGeometry relative="1" as="geometry" />
        </mxCell>
        <mxCell id="P-s0e4_N4zQ5y5fX0aCr-198" style="edgeStyle=orthogonalEdgeStyle;rounded=0;orthogonalLoop=1;jettySize=auto;html=1;entryX=0;entryY=0.5;entryDx=0;entryDy=0;" edge="1" parent="1" source="P-s0e4_N4zQ5y5fX0aCr-143" target="P-s0e4_N4zQ5y5fX0aCr-196">
          <mxGeometry relative="1" as="geometry">
            <Array as="points">
              <mxPoint x="1190" y="970" />
              <mxPoint x="1190" y="1024" />
            </Array>
          </mxGeometry>
        </mxCell>
        <mxCell id="P-s0e4_N4zQ5y5fX0aCr-143" value="" style="rounded=0;whiteSpace=wrap;html=1;" vertex="1" parent="1">
          <mxGeometry x="1090" y="950" width="90" height="40" as="geometry" />
        </mxCell>
        <mxCell id="P-s0e4_N4zQ5y5fX0aCr-146" value="&#xa;&lt;span style=&quot;color: rgb(0, 0, 0); font-family: Helvetica; font-size: 12px; font-style: normal; font-variant-ligatures: normal; font-variant-caps: normal; font-weight: 400; letter-spacing: normal; orphans: 2; text-align: center; text-indent: 0px; text-transform: none; widows: 2; word-spacing: 0px; -webkit-text-stroke-width: 0px; white-space: normal; background-color: rgb(251, 251, 251); text-decoration-thickness: initial; text-decoration-style: initial; text-decoration-color: initial; display: inline !important; float: none;&quot;&gt;Menu Pengguna&lt;/span&gt;&#xa;&#xa;" style="text;html=1;align=center;verticalAlign=middle;whiteSpace=wrap;rounded=0;" vertex="1" parent="1">
          <mxGeometry x="1093" y="960" width="82.5" height="30" as="geometry" />
        </mxCell>
        <mxCell id="P-s0e4_N4zQ5y5fX0aCr-147" value="Tambah Parfum" style="shape=parallelogram;perimeter=parallelogramPerimeter;fixedSize=1;strokeWidth=2;whiteSpace=wrap;" vertex="1" parent="1">
          <mxGeometry x="602" y="900" width="140" height="33" as="geometry" />
        </mxCell>
        <mxCell id="P-s0e4_N4zQ5y5fX0aCr-148" value="Lihat Deskripsi" style="shape=parallelogram;perimeter=parallelogramPerimeter;fixedSize=1;strokeWidth=2;whiteSpace=wrap;" vertex="1" parent="1">
          <mxGeometry x="600" y="943" width="142" height="33" as="geometry" />
        </mxCell>
        <mxCell id="P-s0e4_N4zQ5y5fX0aCr-149" value="Ubah Parfum" style="shape=parallelogram;perimeter=parallelogramPerimeter;fixedSize=1;strokeWidth=2;whiteSpace=wrap;" vertex="1" parent="1">
          <mxGeometry x="601" y="990" width="129" height="33" as="geometry" />
        </mxCell>
        <mxCell id="P-s0e4_N4zQ5y5fX0aCr-191" style="edgeStyle=orthogonalEdgeStyle;rounded=0;orthogonalLoop=1;jettySize=auto;html=1;exitX=0;exitY=0.5;exitDx=0;exitDy=0;entryX=0.5;entryY=0;entryDx=0;entryDy=0;" edge="1" parent="1" source="P-s0e4_N4zQ5y5fX0aCr-150" target="P-s0e4_N4zQ5y5fX0aCr-141">
          <mxGeometry relative="1" as="geometry">
            <Array as="points">
              <mxPoint x="580" y="1056" />
              <mxPoint x="580" y="880" />
              <mxPoint x="830" y="880" />
            </Array>
          </mxGeometry>
        </mxCell>
        <mxCell id="P-s0e4_N4zQ5y5fX0aCr-150" value="Hapus Parfum" style="shape=parallelogram;perimeter=parallelogramPerimeter;fixedSize=1;strokeWidth=2;whiteSpace=wrap;" vertex="1" parent="1">
          <mxGeometry x="597.5" y="1040" width="136" height="33" as="geometry" />
        </mxCell>
        <mxCell id="P-s0e4_N4zQ5y5fX0aCr-155" value="menu admin" style="text;html=1;align=center;verticalAlign=middle;whiteSpace=wrap;rounded=0;" vertex="1" parent="1">
          <mxGeometry x="800" y="952.5" width="60" height="30" as="geometry" />
        </mxCell>
        <mxCell id="P-s0e4_N4zQ5y5fX0aCr-175" value="Lihat Deskripsi Pengguna" style="shape=parallelogram;perimeter=parallelogramPerimeter;fixedSize=1;strokeWidth=2;whiteSpace=wrap;" vertex="1" parent="1">
          <mxGeometry x="1196" y="953.5" width="215" height="33" as="geometry" />
        </mxCell>
        <mxCell id="P-s0e4_N4zQ5y5fX0aCr-177" value="" style="endArrow=classic;html=1;rounded=0;exitX=1;exitY=0.5;exitDx=0;exitDy=0;entryX=0.5;entryY=0;entryDx=0;entryDy=0;" edge="1" parent="1" source="P-s0e4_N4zQ5y5fX0aCr-175" target="P-s0e4_N4zQ5y5fX0aCr-143">
          <mxGeometry width="50" height="50" relative="1" as="geometry">
            <mxPoint x="1140" y="920" as="sourcePoint" />
            <mxPoint x="1190" y="870" as="targetPoint" />
            <Array as="points">
              <mxPoint x="1440" y="970" />
              <mxPoint x="1440" y="920" />
              <mxPoint x="1135" y="920" />
            </Array>
          </mxGeometry>
        </mxCell>
        <mxCell id="P-s0e4_N4zQ5y5fX0aCr-178" value="End" style="rounded=1;whiteSpace=wrap;arcSize=50;strokeWidth=2;" vertex="1" parent="1">
          <mxGeometry x="974" y="1073" width="50" height="33" as="geometry" />
        </mxCell>
        <mxCell id="P-s0e4_N4zQ5y5fX0aCr-179" value="Gagal Masuk" style="whiteSpace=wrap;strokeWidth=2;" vertex="1" parent="1">
          <mxGeometry x="836" y="800" width="109" height="30" as="geometry" />
        </mxCell>
        <mxCell id="P-s0e4_N4zQ5y5fX0aCr-195" style="edgeStyle=orthogonalEdgeStyle;rounded=0;orthogonalLoop=1;jettySize=auto;html=1;exitX=0;exitY=0.5;exitDx=0;exitDy=0;entryX=0.25;entryY=0;entryDx=0;entryDy=0;" edge="1" parent="1" source="P-s0e4_N4zQ5y5fX0aCr-183" target="P-s0e4_N4zQ5y5fX0aCr-122">
          <mxGeometry relative="1" as="geometry">
            <Array as="points">
              <mxPoint x="550" y="1106" />
              <mxPoint x="550" y="720" />
              <mxPoint x="969" y="720" />
            </Array>
          </mxGeometry>
        </mxCell>
        <mxCell id="P-s0e4_N4zQ5y5fX0aCr-183" value="keluar" style="shape=parallelogram;perimeter=parallelogramPerimeter;fixedSize=1;strokeWidth=2;whiteSpace=wrap;" vertex="1" parent="1">
          <mxGeometry x="597.5" y="1090" width="136" height="33" as="geometry" />
        </mxCell>
        <mxCell id="P-s0e4_N4zQ5y5fX0aCr-184" value="" style="endArrow=classic;html=1;rounded=0;exitX=0;exitY=0.5;exitDx=0;exitDy=0;" edge="1" parent="1" target="P-s0e4_N4zQ5y5fX0aCr-131">
          <mxGeometry width="50" height="50" relative="1" as="geometry">
            <mxPoint x="1020" y="865.5" as="sourcePoint" />
            <mxPoint x="999" y="899" as="targetPoint" />
            <Array as="points">
              <mxPoint x="980" y="866" />
            </Array>
          </mxGeometry>
        </mxCell>
        <mxCell id="P-s0e4_N4zQ5y5fX0aCr-192" value="" style="endArrow=none;html=1;rounded=0;exitX=0;exitY=0.5;exitDx=0;exitDy=0;" edge="1" parent="1" source="P-s0e4_N4zQ5y5fX0aCr-149">
          <mxGeometry width="50" height="50" relative="1" as="geometry">
            <mxPoint x="870" y="1020" as="sourcePoint" />
            <mxPoint x="580" y="1007" as="targetPoint" />
          </mxGeometry>
        </mxCell>
        <mxCell id="P-s0e4_N4zQ5y5fX0aCr-193" value="" style="endArrow=none;html=1;rounded=0;exitX=0;exitY=0.5;exitDx=0;exitDy=0;" edge="1" parent="1" source="P-s0e4_N4zQ5y5fX0aCr-148">
          <mxGeometry width="50" height="50" relative="1" as="geometry">
            <mxPoint x="870" y="1020" as="sourcePoint" />
            <mxPoint x="580" y="960" as="targetPoint" />
          </mxGeometry>
        </mxCell>
        <mxCell id="P-s0e4_N4zQ5y5fX0aCr-194" value="" style="endArrow=none;html=1;rounded=0;exitX=0;exitY=0.5;exitDx=0;exitDy=0;" edge="1" parent="1" source="P-s0e4_N4zQ5y5fX0aCr-147">
          <mxGeometry width="50" height="50" relative="1" as="geometry">
            <mxPoint x="870" y="1020" as="sourcePoint" />
            <mxPoint x="580" y="916" as="targetPoint" />
          </mxGeometry>
        </mxCell>
        <mxCell id="P-s0e4_N4zQ5y5fX0aCr-200" style="edgeStyle=orthogonalEdgeStyle;rounded=0;orthogonalLoop=1;jettySize=auto;html=1;exitX=1;exitY=0.5;exitDx=0;exitDy=0;entryX=0.75;entryY=0;entryDx=0;entryDy=0;" edge="1" parent="1" source="P-s0e4_N4zQ5y5fX0aCr-196" target="P-s0e4_N4zQ5y5fX0aCr-122">
          <mxGeometry relative="1" as="geometry">
            <Array as="points">
              <mxPoint x="1460" y="1024" />
              <mxPoint x="1460" y="700" />
              <mxPoint x="1029" y="700" />
            </Array>
          </mxGeometry>
        </mxCell>
        <mxCell id="P-s0e4_N4zQ5y5fX0aCr-196" value="keluar" style="shape=parallelogram;perimeter=parallelogramPerimeter;fixedSize=1;strokeWidth=2;whiteSpace=wrap;" vertex="1" parent="1">
          <mxGeometry x="1230" y="1007" width="136" height="33" as="geometry" />
        </mxCell>
        <mxCell id="P-s0e4_N4zQ5y5fX0aCr-207" value="" style="endArrow=none;html=1;rounded=0;exitX=1;exitY=1;exitDx=0;exitDy=0;entryX=0;entryY=0.25;entryDx=0;entryDy=0;" edge="1" parent="1" source="P-s0e4_N4zQ5y5fX0aCr-122" target="P-s0e4_N4zQ5y5fX0aCr-210">
          <mxGeometry width="50" height="50" relative="1" as="geometry">
            <mxPoint x="1230" y="930" as="sourcePoint" />
            <mxPoint x="1280.0000000000005" y="810" as="targetPoint" />
            <Array as="points">
              <mxPoint x="1059" y="810" />
            </Array>
          </mxGeometry>
        </mxCell>
        <mxCell id="P-s0e4_N4zQ5y5fX0aCr-208" value="" style="endArrow=classic;html=1;rounded=0;exitX=1;exitY=0.5;exitDx=0;exitDy=0;entryX=0.5;entryY=0;entryDx=0;entryDy=0;" edge="1" parent="1" target="P-s0e4_N4zQ5y5fX0aCr-178">
          <mxGeometry width="50" height="50" relative="1" as="geometry">
            <mxPoint x="1400.0000000000005" y="810" as="sourcePoint" />
            <mxPoint x="1280" y="880" as="targetPoint" />
            <Array as="points">
              <mxPoint x="1480" y="810" />
              <mxPoint x="1480" y="1050" />
              <mxPoint x="999" y="1050" />
            </Array>
          </mxGeometry>
        </mxCell>
        <mxCell id="P-s0e4_N4zQ5y5fX0aCr-210" value="keluar" style="shape=parallelogram;perimeter=parallelogramPerimeter;fixedSize=1;strokeWidth=2;whiteSpace=wrap;" vertex="1" parent="1">
          <mxGeometry x="1275" y="797" width="136" height="33" as="geometry" />
        </mxCell>
      </root>
    </mxGraphModel>
  </diagram>
</mxfile>
